<?xml version="1.0" encoding="UTF-8" standalone="no"?><!DOCTYPE svg PUBLIC "-//W3C//DTD SVG 1.1//EN" "http://www.w3.org/Graphics/SVG/1.1/DTD/svg11.dtd"><svg width="100%" height="100%" viewBox="0 0 539 121" version="1.1" xmlns="http://www.w3.org/2000/svg" xmlns:xlink="http://www.w3.org/1999/xlink" xml:space="preserve" xmlns:serif="http://www.serif.com/" style="fill-rule:evenodd;clip-rule:evenodd;stroke-linejoin:round;stroke-miterlimit:2;"><g><path d="M327.74,68.3l-17.95,-42.84l-2.4,0l-18.19,43.52c-2.02,4.9 -4.71,5.72 -7.63,6.07l-0,1.37l16.18,0l-0,-1.37c-3.37,-0.41 -4.67,-2.14 -3.64,-5.16l3.28,-8.43l18.16,0l3.58,9.48c1.18,3.2 -0.64,3.87 -2.73,4.11l-0,1.37l18.92,0l-0,-1.37c-3.37,-0.55 -5.04,-0.96 -7.58,-6.75Zm-29.01,-10.3l7.86,-20.21l7.64,20.21l-15.5,0Z" style="fill:#5b5b5b;fill-rule:nonzero;"/><path d="M191.79,66.95l-20.64,-49.29l-2.5,0l-20.93,50.08c-2.37,5.75 -5.26,6.86 -8.99,7.3l0,1.37l18.53,0l0,-1.37c-4.22,-0.52 -5.45,-2.68 -4.25,-6.24l3.79,-9.75l21.65,0l4.15,10.97c1.39,3.77 -0.35,4.7 -3.13,5.02l0,1.37l19.97,0l0,-1.37c-3.2,-0.29 -4.66,-1.28 -7.65,-8.09Zm-33.42,-11.93l9.41,-24.19l9.15,24.19l-18.56,0Z" style="fill:#5b5b5b;fill-rule:nonzero;"/><path d="M331.91,47.65c0,14.35 8.52,29.81 29.83,29.81c7.23,-0 15.39,-2.59 18,-3.79l0,-13.11l-1.43,0c-2.24,9.26 -8.11,13.35 -16.94,13.35c-9.57,0 -19.48,-7.16 -19.48,-26.26c0,-19.1 9.92,-26.26 19.48,-26.26c8.82,0 14.69,4.09 16.94,13.35l1.43,0l0,-13.11c-2.62,-1.2 -10.78,-3.79 -18,-3.79c-21.31,0 -29.83,15.46 -29.83,29.81Z" style="fill:#5b5b5b;fill-rule:nonzero;"/><path d="M228.55,73.17l-11.45,0l-0,-39.63c-0,-4.54 2.53,-5.14 5.55,-5.57l-0,-1.37l-20.12,0l-0,1.37c3.02,0.43 5.55,1.03 5.55,5.57l-0,35.94c-0,4.54 -2.53,5.14 -5.55,5.57l-0,1.37l36.16,0l0.9,-10.54l-1.33,0c-0.81,2.41 -2.57,7.29 -9.71,7.29Z" style="fill:#5b5b5b;fill-rule:nonzero;"/><path d="M269.7,48.23c4.99,-1.4 8.53,-5.93 8.53,-11.1c0,-6.64 -5.6,-10.53 -14.32,-10.53l-21.83,-0l0,1.37c3.02,0.43 5.55,1.03 5.55,5.57l0,35.94c0,4.54 -2.53,5.14 -5.55,5.57l0,1.37l23.14,-0c10.51,-0 17.37,-4.9 17.37,-14.44c0,-5.22 -3.66,-11.94 -12.89,-13.75Zm-13.05,-18.7l5.18,-0c5.12,-0 8.65,3.38 8.65,8.57c0,4.97 -2.24,9.71 -8.49,9.71l-5.33,-0l0,-18.28l-0.01,-0Zm6.57,43.64l-6.57,-0l0,-22.44l6.31,-0c5.74,-0 10.43,4.49 10.43,11.75c0,7.27 -4.31,10.69 -10.17,10.69Z" style="fill:#5b5b5b;fill-rule:nonzero;"/><path d="M523.68,65.88c-0.97,3.03 -2.57,7.29 -9.7,7.29l-10.1,0l-0,-21.37l8.27,0c6.18,0 6.13,2 6.91,4.91l1.44,0l-0,-12.85l-1.44,0c-0.78,2.91 -0.74,4.91 -6.91,4.91l-8.27,0l-0,-19.14l10.82,0c5.33,0 5.96,3.56 6.91,6.83l1.44,0l-0,-9.86l-33.75,0l-0,1.37c3.01,0.43 5.55,1.03 5.55,5.57l-0,35.94c-0,4.54 -2.53,5.14 -5.55,5.57l-0,1.37l34.81,0l0.9,-10.54l-1.33,0Z" style="fill:#5b5b5b;fill-rule:nonzero;"/><path d="M410.82,25.54c-16.16,0 -25.97,11.62 -25.97,25.96c0,14.34 9.81,25.96 25.97,25.96c16.16,0 25.97,-11.62 25.97,-25.96c-0,-14.34 -9.81,-25.96 -25.97,-25.96Zm-0,48.69c-10.43,0 -16.78,-10.26 -16.78,-22.65c-0,-12.34 6.39,-22.84 16.78,-22.84c10.43,0 16.78,10.32 16.78,22.67c0,12.39 -6.3,22.82 -16.78,22.82Z" style="fill:#5b5b5b;fill-rule:nonzero;"/><path d="M473.43,64.91l-8,-9.87c7.51,-1.99 11.14,-8.04 11.14,-14.52c0,-8.07 -6.25,-13.92 -17.15,-13.92l-21.2,0l0,1.37c3.01,0.43 5.55,1.03 5.55,5.57l0,35.93c0,4.54 -2.53,5.14 -5.55,5.57l0,1.37l20.74,0l0,-1.37c-3.64,-0.38 -6.16,-1.07 -6.16,-5.57l0,-13.74l3.78,0l9.62,12.49c4.42,6.1 12.45,11.57 21.55,8.2l0,-1.37c-4.61,-0.68 -9.52,-4.46 -14.32,-10.14Zm-15.26,-12.37l-5.37,0l0,-22.89l5.1,0c6.71,0 10.07,5 10.07,11.44c0,6.45 -3.08,11.45 -9.8,11.45Z" style="fill:#5b5b5b;fill-rule:nonzero;"/></g><g><path d="M156.31,98.23l0.63,0l0,5.57l-0.63,0c-0.18,-0.63 -0.5,-1.19 -0.96,-1.68c-1.76,1.58 -4.01,2.37 -6.74,2.37c-2.89,0 -5.25,-0.73 -7.08,-2.18c-1.83,-1.45 -2.75,-3.38 -2.75,-5.77c0,-1.57 0.42,-3.05 1.27,-4.44c0.85,-1.39 2.02,-2.42 3.54,-3.09c1.52,-0.67 3.18,-1.01 4.98,-1.01c1.49,0 2.85,0.24 4.06,0.73c1.21,0.49 2.12,1.03 2.72,1.62c0.42,-0.66 0.68,-1.35 0.77,-2.06l0.65,0l0.18,6.02l-0.63,0c-0.44,-2.14 -1.34,-3.63 -2.71,-4.46c-1.37,-0.83 -2.9,-1.25 -4.61,-1.25c-2.09,0 -3.76,0.68 -4.99,2.03c-1.23,1.35 -1.85,3.29 -1.85,5.8c0,2.38 0.67,4.21 2.02,5.48c1.35,1.27 3.02,1.9 5.03,1.9c1.07,0 2.17,-0.21 3.29,-0.62c1.12,-0.41 2.01,-1.12 2.66,-2.1c0.65,-0.98 1.04,-1.94 1.15,-2.86Z" style="fill:#5b5b5b;fill-rule:nonzero;"/><path d="M183.99,98.34l-7.59,0l-0.52,1.01c-0.77,1.46 -1.15,2.41 -1.15,2.86c0,0.48 0.2,0.84 0.61,1.08c0.41,0.25 0.93,0.37 1.57,0.37l0,0.54l-5.94,0l0,-0.54c0.88,-0.11 1.54,-0.36 1.98,-0.74c0.43,-0.39 0.95,-1.2 1.56,-2.44c0.05,-0.12 0.28,-0.57 0.71,-1.36l5.81,-11.03l0.58,0l6.68,12.62l0.91,1.66c0.21,0.38 0.48,0.67 0.83,0.88c0.35,0.21 0.87,0.35 1.57,0.4l0,0.54l-7.86,0l0,-0.54c0.96,0 1.61,-0.06 1.95,-0.17c0.34,-0.11 0.51,-0.34 0.51,-0.67c0,-0.17 -0.23,-0.68 -0.68,-1.54l-1.53,-2.93Zm-0.25,-0.53l-3.54,-6.77l-3.52,6.77l7.06,0Z" style="fill:#5b5b5b;fill-rule:nonzero;"/><path d="M210.37,96.72l0,3.34c0,1.25 0.04,2.07 0.11,2.46c0.07,0.39 0.27,0.67 0.6,0.86c0.32,0.19 0.93,0.28 1.83,0.28l0.66,0l0,0.54l-9.16,0l0,-0.54l0.53,0c0.86,0 1.45,-0.09 1.78,-0.26c0.33,-0.17 0.54,-0.44 0.63,-0.8c0.09,-0.36 0.13,-1.21 0.13,-2.54l0,-7.79c0,-1.27 -0.04,-2.08 -0.13,-2.45c-0.09,-0.37 -0.29,-0.62 -0.59,-0.76c-0.31,-0.14 -0.96,-0.21 -1.98,-0.21l-0.37,0l0,-0.54l2.51,-0.07c2.01,-0.05 3.57,-0.08 4.69,-0.08c2.06,0 3.65,0.13 4.77,0.39c1.12,0.26 2.03,0.71 2.74,1.37c0.71,0.66 1.07,1.48 1.07,2.48c0,0.87 -0.24,1.63 -0.73,2.3c-0.49,0.66 -1.18,1.17 -2.09,1.51c-0.91,0.34 -2.51,0.52 -4.8,0.52l-2.2,0l-0,-0.01Zm-0,-0.59l1.43,0c1.15,0 2.08,-0.09 2.79,-0.28c0.71,-0.18 1.3,-0.57 1.77,-1.15c0.47,-0.59 0.71,-1.31 0.71,-2.17c-0,-1.31 -0.41,-2.28 -1.22,-2.89c-0.81,-0.61 -2.13,-0.92 -3.94,-0.92c-0.67,0 -1.18,0.02 -1.53,0.05l-0,7.36l-0.01,0Z" style="fill:#5b5b5b;fill-rule:nonzero;"/><path d="M233.21,88.84l0,-0.54l9.14,0l0,0.54l-0.43,0c-0.98,0 -1.63,0.06 -1.93,0.19c-0.3,0.13 -0.51,0.37 -0.61,0.72c-0.1,0.35 -0.15,1.19 -0.15,2.51l0,7.79c0,1.25 0.04,2.07 0.11,2.46c0.07,0.39 0.27,0.67 0.59,0.86c0.32,0.19 0.93,0.28 1.84,0.28l0.59,0l0,0.54l-9.14,0l0,-0.54l0.59,0c0.86,0 1.45,-0.09 1.78,-0.26c0.33,-0.17 0.54,-0.44 0.63,-0.8c0.09,-0.36 0.13,-1.21 0.13,-2.54l0,-7.79c0,-1.27 -0.04,-2.08 -0.13,-2.45c-0.09,-0.37 -0.29,-0.62 -0.59,-0.76c-0.31,-0.14 -0.96,-0.21 -1.98,-0.21l-0.44,0Z" style="fill:#5b5b5b;fill-rule:nonzero;"/><path d="M256.59,92.13l-0.68,0l0.1,-3.82l19.4,0l0.1,3.82l-0.63,0c-0.23,-1.05 -0.54,-1.8 -0.93,-2.27c-0.39,-0.46 -0.82,-0.75 -1.27,-0.86c-0.45,-0.11 -1.22,-0.16 -2.32,-0.16l-3.21,0l-0,11.21c-0,1.24 0.04,2.06 0.11,2.45c0.07,0.39 0.27,0.68 0.6,0.87c0.32,0.19 0.93,0.28 1.83,0.28l0.97,0l-0,0.54l-9.97,0l-0,-0.54l1.03,0c0.86,0 1.45,-0.09 1.78,-0.26c0.33,-0.17 0.54,-0.44 0.63,-0.8c0.09,-0.36 0.14,-1.21 0.14,-2.54l-0,-11.21l-2.96,0c-1.29,0 -2.15,0.05 -2.6,0.15c-0.45,0.1 -0.86,0.39 -1.25,0.88c-0.39,0.49 -0.67,1.25 -0.87,2.26Z" style="fill:#5b5b5b;fill-rule:nonzero;"/><path d="M298.73,98.34l-7.59,0l-0.52,1.01c-0.77,1.46 -1.15,2.41 -1.15,2.86c0,0.48 0.2,0.84 0.61,1.08c0.41,0.25 0.93,0.37 1.57,0.37l0,0.54l-5.94,0l0,-0.54c0.88,-0.11 1.54,-0.36 1.98,-0.74c0.44,-0.38 0.95,-1.2 1.56,-2.44c0.05,-0.12 0.29,-0.57 0.71,-1.36l5.81,-11.03l0.58,0l6.68,12.62l0.91,1.66c0.21,0.38 0.48,0.67 0.83,0.88c0.35,0.21 0.87,0.35 1.57,0.4l0,0.54l-7.86,0l0,-0.54c0.96,0 1.61,-0.06 1.95,-0.17c0.34,-0.11 0.51,-0.34 0.51,-0.67c0,-0.17 -0.23,-0.68 -0.68,-1.54l-1.53,-2.93Zm-0.25,-0.53l-3.54,-6.77l-3.52,6.77l7.06,0Z" style="fill:#5b5b5b;fill-rule:nonzero;"/><path d="M336.15,99.52l-0.15,4.68l-16.99,0l-0,-0.54l0.59,0c0.85,0 1.45,-0.09 1.78,-0.26c0.33,-0.17 0.54,-0.44 0.63,-0.8c0.09,-0.36 0.14,-1.21 0.14,-2.54l-0,-7.79c-0,-1.27 -0.05,-2.08 -0.14,-2.45c-0.09,-0.37 -0.29,-0.62 -0.59,-0.76c-0.3,-0.14 -0.96,-0.21 -1.97,-0.21l-0.44,0l-0,-0.54l9.6,0l-0,0.54l-0.88,0c-0.98,0 -1.63,0.06 -1.93,0.19c-0.3,0.13 -0.51,0.37 -0.61,0.72c-0.1,0.35 -0.16,1.19 -0.16,2.51l-0,8.32c-0,1.15 0.04,1.87 0.12,2.16c0.08,0.29 0.29,0.51 0.64,0.67c0.35,0.16 1.1,0.24 2.25,0.24l1.52,0c1.23,0 2.14,-0.09 2.74,-0.26c0.6,-0.17 1.16,-0.55 1.7,-1.12c0.54,-0.58 1.02,-1.5 1.47,-2.75l0.68,0l0,-0.01Z" style="fill:#5b5b5b;fill-rule:nonzero;"/><path d="M381.92,97.41l8.63,0l0,0.56c-0.95,0 -1.6,0.08 -1.94,0.23c-0.34,0.15 -0.56,0.41 -0.67,0.76c-0.11,0.36 -0.16,1.22 -0.16,2.58l0,1.69c-0.24,-0.03 -0.45,-0.05 -0.63,-0.05c-0.76,0 -1.75,0.18 -2.98,0.55c-1.67,0.5 -3.22,0.75 -4.64,0.75c-2.86,0 -5.24,-0.75 -7.14,-2.24c-1.9,-1.5 -2.85,-3.39 -2.85,-5.69c0,-2.27 0.9,-4.27 2.71,-5.98c1.81,-1.71 4.27,-2.57 7.37,-2.57c2.67,0 4.89,0.78 6.63,2.34c0.33,-0.55 0.53,-1.14 0.62,-1.77l0.71,0l0,5.31l-0.71,0c-0.29,-1.63 -1.06,-2.93 -2.34,-3.88c-1.27,-0.95 -2.82,-1.43 -4.64,-1.43c-1.88,0 -3.51,0.55 -4.91,1.66c-1.4,1.11 -2.09,3.08 -2.09,5.91c0,2.82 0.67,4.82 2.02,5.99c1.35,1.17 3.02,1.76 5.01,1.76c1.02,0 1.95,-0.17 2.79,-0.5c0.83,-0.33 1.41,-0.74 1.71,-1.21c0.3,-0.47 0.46,-1.08 0.46,-1.8c0,-0.85 -0.07,-1.42 -0.21,-1.71c-0.14,-0.29 -0.36,-0.48 -0.66,-0.57c-0.3,-0.09 -0.83,-0.15 -1.62,-0.15l-0.47,0l0,-0.54Z" style="fill:#5b5b5b;fill-rule:nonzero;"/><path d="M425.26,104.2l-5.39,0c-0.95,-0.53 -2.41,-1.92 -4.38,-4.17c-0.63,-0.72 -1.28,-1.41 -1.96,-2.07c-0.68,-0.66 -1.15,-1.06 -1.4,-1.21c-0.25,-0.15 -0.65,-0.22 -1.19,-0.22l-0.8,0l0,3.53c0,1.25 0.04,2.07 0.11,2.46c0.07,0.39 0.27,0.67 0.59,0.86c0.32,0.19 0.93,0.28 1.84,0.28l0.96,0l0,0.54l-9.57,0l0,-0.54l0.65,0c0.86,0 1.45,-0.09 1.78,-0.26c0.33,-0.17 0.54,-0.44 0.63,-0.8c0.09,-0.36 0.13,-1.21 0.13,-2.54l0,-7.79c0,-1.27 -0.04,-2.08 -0.13,-2.45c-0.09,-0.37 -0.29,-0.62 -0.59,-0.76c-0.3,-0.14 -0.96,-0.21 -1.98,-0.21l-0.34,0l0,-0.54l2.86,-0.12c1.91,-0.07 3.42,-0.11 4.54,-0.11c1.91,0 3.46,0.14 4.65,0.42c1.19,0.28 2.16,0.74 2.9,1.38c0.74,0.64 1.11,1.41 1.11,2.3c0,1.04 -0.48,1.93 -1.45,2.66c-0.96,0.73 -2.38,1.19 -4.25,1.37c0.83,0.32 2.18,1.48 4.04,3.47c1.51,1.62 2.7,2.68 3.57,3.18c0.86,0.5 1.89,0.77 3.07,0.8l0,0.54Zm-15.13,-8.21c0.74,-0.02 1.5,-0.04 2.29,-0.07c0.79,-0.03 1.47,-0.12 2.05,-0.26c0.58,-0.14 1.05,-0.35 1.41,-0.62c0.36,-0.27 0.64,-0.62 0.85,-1.06c0.21,-0.44 0.31,-0.98 0.31,-1.62c0,-1.12 -0.35,-2.01 -1.05,-2.68c-0.7,-0.67 -2.23,-1.01 -4.59,-1.01c-0.36,0 -0.78,0.02 -1.25,0.05l0,7.27l-0.02,0Z" style="fill:#5b5b5b;fill-rule:nonzero;"/><path d="M436.36,96.15c0,-2.45 1.03,-4.42 3.1,-5.91c2.07,-1.49 4.64,-2.23 7.73,-2.23c3.12,0 5.72,0.73 7.81,2.2c2.09,1.47 3.13,3.47 3.13,6.01c0,2.46 -1,4.45 -3,5.98c-2,1.52 -4.63,2.29 -7.9,2.29c-3.17,0 -5.78,-0.76 -7.81,-2.29c-2.04,-1.52 -3.06,-3.54 -3.06,-6.05Zm3.38,0.08c-0,2.55 0.64,4.47 1.92,5.75c1.28,1.28 3.21,1.92 5.77,1.92c2.25,-0 4.03,-0.64 5.34,-1.92c1.31,-1.28 1.96,-3.19 1.96,-5.73c-0,-2.47 -0.64,-4.36 -1.93,-5.68c-1.29,-1.32 -3.16,-1.97 -5.6,-1.97c-2.41,-0 -4.25,0.64 -5.54,1.93c-1.28,1.28 -1.92,3.18 -1.92,5.7Z" style="fill:#5b5b5b;fill-rule:nonzero;"/><path d="M487.62,88.31l6.69,0l0,0.54c-0.88,0.05 -1.55,0.21 -1.98,0.47c-0.43,0.26 -0.71,0.57 -0.8,0.91c-0.1,0.34 -0.15,0.99 -0.15,1.96l0,5.29c0,1.35 -0.07,2.36 -0.2,3.01c-0.13,0.65 -0.52,1.3 -1.15,1.93c-0.63,0.63 -1.53,1.14 -2.68,1.51c-1.15,0.37 -2.48,0.56 -3.98,0.56c-1.78,0 -3.29,-0.24 -4.52,-0.72c-1.23,-0.48 -2.11,-1.1 -2.64,-1.86c-0.53,-0.76 -0.79,-1.78 -0.79,-3.06l0.01,-1.63l0,-4.95c0,-1.27 -0.05,-2.08 -0.14,-2.45c-0.09,-0.37 -0.29,-0.62 -0.59,-0.76c-0.3,-0.14 -0.96,-0.21 -1.97,-0.21l-0.46,0l0,-0.54l9.13,0l0,0.54l-0.4,0c-0.98,0 -1.63,0.06 -1.93,0.19c-0.31,0.13 -0.51,0.37 -0.61,0.72c-0.1,0.35 -0.16,1.19 -0.16,2.51l0,5c0,1.73 0.1,2.96 0.3,3.69c0.2,0.73 0.77,1.36 1.7,1.9c0.93,0.54 2.18,0.81 3.73,0.81c1.22,0 2.33,-0.18 3.33,-0.54c1,-0.36 1.74,-0.82 2.23,-1.36c0.49,-0.54 0.78,-1.1 0.89,-1.68c0.11,-0.58 0.16,-1.48 0.16,-2.71l0,-5.41c0,-0.9 -0.06,-1.53 -0.19,-1.89c-0.13,-0.36 -0.4,-0.64 -0.83,-0.86c-0.43,-0.22 -1.09,-0.34 -2,-0.39l0,-0.52Z" style="fill:#5b5b5b;fill-rule:nonzero;"/><path d="M513.93,96.72l-0,3.34c-0,1.25 0.04,2.07 0.11,2.46c0.07,0.39 0.27,0.67 0.6,0.86c0.33,0.19 0.93,0.28 1.83,0.28l0.66,0l-0,0.54l-9.16,0l-0,-0.54l0.53,0c0.86,0 1.45,-0.09 1.78,-0.26c0.33,-0.17 0.54,-0.44 0.63,-0.8c0.09,-0.36 0.13,-1.21 0.13,-2.54l-0,-7.79c-0,-1.27 -0.04,-2.08 -0.13,-2.45c-0.09,-0.37 -0.29,-0.62 -0.59,-0.76c-0.3,-0.14 -0.96,-0.21 -1.98,-0.21l-0.37,0l-0,-0.54l2.51,-0.07c2.01,-0.05 3.57,-0.08 4.69,-0.08c2.06,0 3.65,0.13 4.77,0.39c1.12,0.26 2.03,0.71 2.74,1.37c0.71,0.66 1.07,1.48 1.07,2.48c-0,0.87 -0.24,1.63 -0.73,2.3c-0.49,0.67 -1.18,1.17 -2.09,1.51c-0.91,0.34 -2.51,0.52 -4.8,0.52l-2.2,0l-0,-0.01Zm-0,-0.59l1.43,0c1.15,0 2.08,-0.09 2.79,-0.28c0.71,-0.19 1.3,-0.57 1.77,-1.15c0.47,-0.59 0.71,-1.31 0.71,-2.17c-0,-1.31 -0.41,-2.28 -1.22,-2.89c-0.81,-0.61 -2.13,-0.92 -3.94,-0.92c-0.67,0 -1.18,0.02 -1.53,0.05l-0,7.36l-0.01,0Z" style="fill:#5b5b5b;fill-rule:nonzero;"/></g><path d="M80.13,17.54l-3.46,8.81c0,0 -2.03,-3.54 -4.25,-6.18c-2.24,-2.78 -4.71,-4.98 -4.71,-4.98c0,0 3.37,0.18 6.32,0.77c3.06,0.54 6.1,1.58 6.1,1.58Zm-21.24,-13.5c-4.05,0.57 -8,1.84 -8,1.84c0,0 4.46,1.38 8.27,3.38c4.21,2.09 7.86,5.3 7.86,5.3l0,-11.18c0.01,0 -3.62,-0.07 -8.13,0.66Zm22.72,25.13c-1.41,-0.77 -4.43,-1.92 -4.43,-1.92c0,0 1.18,2.13 2.14,4.49c0.95,2.24 1.66,5.05 1.66,5.05l4.74,-5.15c-0.01,0.01 -2.26,-1.52 -4.11,-2.47Zm2.22,10.41c-1.26,-1.15 -2.73,-2.25 -2.73,-2.25c0,0 0.32,1.1 0.51,3.83c0.12,2.71 -0.64,4.3 -0.64,4.3l5.31,-3.35c-0.01,0.01 -1.19,-1.38 -2.45,-2.53Zm11.17,-14.62c-2.27,-1.98 -5.09,-3.82 -5.09,-3.82c0,0 1.05,3.14 1.6,6.67c0.61,3.39 0.6,7.48 0.6,7.48l7.39,-5.91c0,0 -2.12,-2.42 -4.5,-4.42Zm-7.18,-17.87c-3.79,-1.53 -7.85,-2.39 -7.85,-2.39c0,0 3.18,3.42 5.49,7.05c2.61,3.91 4.17,8.52 4.17,8.52l5.57,-9.7c0,0.01 -3.11,-1.87 -7.38,-3.48Zm7.16,33.11c-0.84,-1.36 -2.89,-3.87 -2.89,-3.87c0,0 -0.04,2.43 -0.38,4.96c-0.29,2.41 -1.08,5.21 -1.08,5.21l6.68,-2.1c0,-0.01 -1.19,-2.45 -2.33,-4.2Zm-3.26,10.13c-0.52,-1.62 -1.25,-3.31 -1.25,-3.31c0,0 -0.27,1.12 -1.47,3.58c-1.24,2.41 -2.7,3.41 -2.7,3.41l6.27,-0.26c0,0 -0.33,-1.79 -0.85,-3.42Zm16.98,-6.97c-0.97,-2.85 -2.49,-5.86 -2.49,-5.86c0,0 -0.67,3.24 -1.96,6.57c-1.18,3.24 -3.23,6.77 -3.23,6.77l9.36,-1.41c0,0.01 -0.62,-3.14 -1.68,-6.07Zm2.75,-19.06c-2.52,-3.22 -5.59,-6 -5.59,-6c0,0 1.03,4.56 1.21,8.85c0.3,4.69 -0.66,9.46 -0.66,9.46l9.69,-5.59c-0.01,0 -1.77,-3.18 -4.65,-6.72Zm-10.41,32.24c-0.04,-1.6 -0.55,-4.8 -0.55,-4.8c0,-0 -1.25,2.08 -2.82,4.1c-1.47,1.94 -3.55,3.96 -3.55,3.96l6.83,1.53c0,-0 0.2,-2.71 0.09,-4.79Zm-7.9,7.13c0.36,-1.67 0.58,-3.49 0.58,-3.49c0,-0 -0.79,0.83 -3.06,2.36c-2.29,1.46 -4.05,1.6 -4.05,1.6l5.55,2.92c0,-0.01 0.62,-1.72 0.98,-3.39Zm18.21,2.39c0.59,-2.95 0.78,-6.32 0.78,-6.32c0,-0 -2.2,2.47 -4.99,4.7c-2.64,2.21 -6.18,4.24 -6.18,4.24l8.8,3.47c0,0.01 1.04,-3.03 1.59,-6.09Zm11.93,-15.12c-0.56,-4.05 -1.83,-8 -1.83,-8c0,0 -1.39,4.46 -3.39,8.27c-2.09,4.21 -5.31,7.85 -5.31,7.85l11.19,0.01c-0.01,0 0.07,-3.62 -0.66,-8.13Zm-25.16,22.69c0.77,-1.41 1.92,-4.43 1.92,-4.43c0,0 -2.13,1.17 -4.49,2.13c-2.24,0.95 -5.06,1.65 -5.06,1.65l5.14,4.75c0.01,0 1.54,-2.25 2.49,-4.1Zm-10.41,2.2c1.15,-1.26 2.25,-2.73 2.25,-2.73c0,0 -1.1,0.32 -3.83,0.5c-2.71,0.12 -4.3,-0.64 -4.3,-0.64l3.34,5.31c0,0 1.39,-1.17 2.54,-2.44Zm14.58,11.21c1.98,-2.26 3.82,-5.09 3.82,-5.09c0,0 -3.14,1.04 -6.67,1.59c-3.39,0.6 -7.48,0.59 -7.48,0.59l5.9,7.4c0,0 2.42,-2.11 4.43,-4.49Zm17.88,-7.15c1.53,-3.79 2.4,-7.85 2.4,-7.85c0,0 -3.43,3.17 -7.06,5.48c-3.92,2.61 -8.52,4.16 -8.52,4.16l9.69,5.59c-0.01,-0.01 1.87,-3.11 3.49,-7.38Zm-33.12,7.11c1.37,-0.84 3.88,-2.88 3.88,-2.88c0,-0 -2.43,-0.04 -4.96,-0.39c-2.41,-0.3 -5.21,-1.09 -5.21,-1.09l2.09,6.68c0,-0 2.45,-1.19 4.2,-2.32Zm-10.13,-3.28c1.63,-0.52 3.31,-1.24 3.31,-1.24c0,-0 -1.11,-0.28 -3.57,-1.48c-2.41,-1.25 -3.41,-2.7 -3.41,-2.7l0.25,6.27c0,-0 1.79,-0.33 3.42,-0.85Zm7.06,16.96c2.85,-0.97 5.86,-2.5 5.86,-2.5c0,-0 -3.24,-0.67 -6.57,-1.96c-3.25,-1.17 -6.78,-3.22 -6.78,-3.22l1.41,9.36c0,-0 3.15,-0.62 6.08,-1.68Zm19.06,2.73c3.22,-2.52 6,-5.6 6,-5.6c0,-0 -4.55,1.04 -8.85,1.22c-4.69,0.3 -9.46,-0.66 -9.46,-0.66l5.6,9.68c-0,0.01 3.18,-1.75 6.71,-4.64Zm-32.24,-10.38c1.6,-0.04 4.8,-0.56 4.8,-0.56c-0,-0 -2.08,-1.25 -4.1,-2.82c-1.94,-1.46 -3.96,-3.55 -3.96,-3.55l-1.53,6.83c-0,0.01 2.7,0.21 4.79,0.1Zm-7.14,-7.9c1.67,0.36 3.49,0.58 3.49,0.58c-0,-0 -0.83,-0.79 -2.36,-3.06c-1.46,-2.28 -1.6,-4.04 -1.6,-4.04l-2.92,5.56c0.01,-0.02 1.72,0.59 3.39,0.96Zm-2.44,18.2c2.95,0.59 6.32,0.78 6.32,0.78c-0,-0 -2.47,-2.2 -4.7,-4.99c-2.21,-2.64 -4.24,-6.19 -4.24,-6.19l-3.47,8.8c-0,-0 3.03,1.04 6.09,1.6Zm15.12,11.93c4.05,-0.56 8,-1.83 8,-1.83c-0,-0 -4.46,-1.39 -8.27,-3.39c-4.21,-2.09 -7.85,-5.31 -7.85,-5.31l-0.02,11.17c-0,-0 3.63,0.08 8.14,-0.64Zm-22.68,-25.17c1.41,0.77 4.43,1.93 4.43,1.93c-0,-0 -1.17,-2.13 -2.13,-4.49c-0.95,-2.24 -1.65,-5.06 -1.65,-5.06l-4.75,5.14c-0,-0 2.25,1.53 4.1,2.48Zm-2.2,-10.41c1.26,1.15 2.73,2.25 2.73,2.25c-0,-0 -0.32,-1.1 -0.5,-3.83c-0.12,-2.71 0.65,-4.3 0.65,-4.3l-5.31,3.34c-0.01,-0 1.16,1.39 2.43,2.54Zm-11.2,14.61c2.26,1.98 5.09,3.83 5.09,3.83c-0,-0 -1.04,-3.14 -1.58,-6.67c-0.6,-3.39 -0.59,-7.48 -0.59,-7.48l-7.4,5.89c-0.01,-0 2.1,2.42 4.48,4.43Zm7.15,17.88c3.79,1.53 7.85,2.41 7.85,2.41c-0,-0 -3.17,-3.43 -5.47,-7.06c-2.6,-3.92 -4.15,-8.52 -4.15,-8.52l-5.59,9.69c-0.02,-0.02 3.09,1.86 7.36,3.48Zm-7.1,-33.12c0.84,1.37 2.88,3.88 2.88,3.88c-0,-0 0.05,-2.43 0.39,-4.96c0.3,-2.41 1.09,-5.21 1.09,-5.21l-6.68,2.09c-0,-0 1.18,2.45 2.32,4.2Zm3.28,-10.13c0.52,1.63 1.24,3.31 1.24,3.31c-0,-0 0.27,-1.11 1.47,-3.57c1.25,-2.41 2.71,-3.41 2.71,-3.41l-6.27,0.25c0.01,0.01 0.33,1.8 0.85,3.42Zm-17,7.03c0.97,2.85 2.49,5.86 2.49,5.86c-0,-0 0.67,-3.24 1.96,-6.57c1.18,-3.24 3.23,-6.77 3.23,-6.77l-9.36,1.41c0.01,-0 0.63,3.15 1.68,6.07Zm-2.74,19.07c2.52,3.22 5.59,6 5.59,6c-0,-0 -1.03,-4.55 -1.21,-8.85c-0.3,-4.69 0.66,-9.46 0.66,-9.46l-9.69,5.59c0.01,-0 1.76,3.18 4.65,6.72Zm10.4,-32.24c0.04,1.6 0.55,4.8 0.55,4.8c-0,-0 1.25,-2.08 2.82,-4.1c1.47,-1.94 3.55,-3.96 3.55,-3.96l-6.83,-1.53c-0,-0 -0.2,2.7 -0.09,4.79Zm7.91,-7.13c-0.36,1.67 -0.58,3.49 -0.58,3.49c-0,-0 0.79,-0.83 3.06,-2.36c2.29,-1.46 4.05,-1.6 4.05,-1.6l-5.55,-2.92c-0.01,-0 -0.62,1.72 -0.98,3.39Zm-18.2,-2.39c-0.59,2.95 -0.78,6.32 -0.78,6.32c-0,-0 2.2,-2.47 4.99,-4.7c2.64,-2.21 6.18,-4.24 6.18,-4.24l-8.8,-3.47c-0,-0 -1.04,3.03 -1.59,6.09Zm-11.92,15.13c0.56,4.05 1.83,8 1.83,8c-0,-0 1.39,-4.46 3.39,-8.27c2.09,-4.21 5.31,-7.86 5.31,-7.86l-11.19,-0.01c0.01,-0 -0.07,3.63 0.66,8.14Zm25.15,-22.7c-0.77,1.41 -1.92,4.43 -1.92,4.43c-0,-0 2.13,-1.17 4.49,-2.13c2.24,-0.95 5.06,-1.65 5.06,-1.65l-5.15,-4.74c-0,-0.01 -1.53,2.24 -2.48,4.09Zm10.41,-2.21c-1.15,1.26 -2.25,2.73 -2.25,2.73c-0,-0 1.1,-0.32 3.83,-0.51c2.71,-0.12 4.3,0.64 4.3,0.64l-3.34,-5.31c-0,0.01 -1.39,1.19 -2.54,2.45Zm-14.61,-11.24c-1.98,2.26 -3.83,5.09 -3.83,5.09c-0,-0 3.14,-1.04 6.67,-1.58c3.39,-0.6 7.48,-0.59 7.48,-0.59l-5.89,-7.4c-0,-0 -2.42,2.11 -4.43,4.48Zm-17.88,7.15c-1.53,3.79 -2.41,7.85 -2.41,7.85c-0,-0 3.43,-3.17 7.06,-5.47c3.92,-2.6 8.52,-4.15 8.52,-4.15l-9.69,-5.59c0.02,-0.01 -1.86,3.09 -3.48,7.36Zm33.12,-7.1c-1.37,0.84 -3.88,2.88 -3.88,2.88c-0,-0 2.43,0.05 4.96,0.39c2.41,0.3 5.21,1.09 5.21,1.09l-2.09,-6.68c-0,0.01 -2.45,1.19 -4.2,2.32Zm10.13,3.29c-1.63,0.52 -3.31,1.24 -3.31,1.24c-0,-0 1.11,0.27 3.57,1.47c2.41,1.25 3.41,2.71 3.41,2.71l-0.25,-6.27c-0,-0 -1.8,0.33 -3.42,0.85Zm-6.99,-16.96c-2.85,0.96 -5.86,2.48 -5.86,2.48c-0,-0 3.24,0.67 6.56,1.97c3.24,1.18 6.76,3.24 6.76,3.24l-1.39,-9.36c0.01,-0 -3.15,0.62 -6.07,1.67Zm-19.06,-2.78c-3.23,2.51 -6.01,5.58 -6.01,5.58c-0,-0 4.56,-1.03 8.86,-1.2c4.69,-0.29 9.46,0.68 9.46,0.68l-5.58,-9.69c-0.01,0.01 -3.19,1.75 -6.73,4.63Zm32.22,10.46c-1.6,0.04 -4.8,0.55 -4.8,0.55c-0,-0 2.08,1.26 4.09,2.83c1.94,1.47 3.96,3.56 3.96,3.56l1.54,-6.83c-0,-0.01 -2.71,-0.21 -4.79,-0.11Zm7.12,7.92c-1.67,-0.37 -3.49,-0.58 -3.49,-0.58c-0,-0 0.83,0.79 2.35,3.07c1.46,2.29 1.59,4.05 1.59,4.05l2.93,-5.55c-0,-0.01 -1.72,-0.63 -3.38,-0.99Zm10.22,15.84c-0.58,-0.98 -1.3,-1.96 -1.3,-1.96c-0,-0 -0.01,0.76 -0.43,2.54c-0.45,1.75 -1.25,2.61 -1.25,2.61l4.03,-1.09c0.01,-0.01 -0.47,-1.13 -1.05,-2.1Zm2.91,8.38c-0.01,-1.14 -0.15,-2.35 -0.15,-2.35c-0,-0 -0.39,0.66 -1.63,1.98c-1.26,1.29 -2.39,1.64 -2.39,1.64l4.04,1.06c0.01,0.01 0.15,-1.19 0.13,-2.33Zm-1.71,8.76c0.56,-0.99 1.05,-2.11 1.05,-2.11c-0,-0 -0.66,0.37 -2.41,0.9c-1.74,0.48 -2.89,0.22 -2.89,0.22l2.96,2.95c0.01,-0 0.73,-0.97 1.29,-1.96Zm-5.84,6.67c0.98,-0.58 1.97,-1.3 1.97,-1.3c-0,-0 -0.76,-0.01 -2.53,-0.43c-1.75,-0.45 -2.61,-1.25 -2.61,-1.25l1.08,4.03c-0,0.01 1.12,-0.47 2.09,-1.05Zm-8.4,2.9c1.14,-0.01 2.35,-0.14 2.35,-0.14c-0,-0 -0.65,-0.39 -1.98,-1.64c-1.29,-1.27 -1.64,-2.39 -1.64,-2.39l-1.07,4.04c-0,-0 1.2,0.14 2.34,0.13Zm-8.71,-1.7c0.99,0.56 2.11,1.05 2.11,1.05c-0,-0 -0.37,-0.66 -0.9,-2.41c-0.48,-1.74 -0.22,-2.89 -0.22,-2.89l-2.94,2.96c-0.01,-0 0.96,0.73 1.95,1.29Zm-6.7,-5.86c0.58,0.98 1.29,1.97 1.29,1.97c-0,-0 0.01,-0.76 0.43,-2.53c0.46,-1.75 1.25,-2.61 1.25,-2.61l-4.03,1.08c0.01,-0.01 0.49,1.11 1.06,2.09Zm-2.89,-8.39c0.01,1.14 0.14,2.35 0.14,2.35c-0,-0 0.39,-0.65 1.64,-1.98c1.27,-1.29 2.39,-1.64 2.39,-1.64l-4.04,-1.07c-0,0.01 -0.14,1.21 -0.13,2.34Zm1.69,-8.72c-0.56,0.99 -1.05,2.11 -1.05,2.11c-0,-0 0.66,-0.37 2.41,-0.9c1.74,-0.48 2.89,-0.22 2.89,-0.22l-2.96,-2.95c-0,-0 -0.73,0.97 -1.29,1.96Zm5.85,-6.67c-0.98,0.58 -1.97,1.3 -1.97,1.3c-0,-0 0.76,0.01 2.53,0.43c1.75,0.45 2.61,1.25 2.61,1.25l-1.09,-4.03c0.02,-0 -1.1,0.48 -2.08,1.05Zm8.39,-2.91c-1.14,0.01 -2.35,0.14 -2.35,0.14c-0,-0 0.65,0.39 1.98,1.64c1.29,1.27 1.63,2.39 1.63,2.39l1.07,-4.04c0.01,-0 -1.19,-0.15 -2.33,-0.13Zm8.72,1.74c-0.99,-0.56 -2.1,-1.06 -2.1,-1.06c-0,-0 0.37,0.67 0.89,2.41c0.48,1.74 0.22,2.89 0.22,2.89l2.95,-2.95c-0,-0.01 -0.97,-0.73 -1.96,-1.29Z" style="fill:#5b5b5b;fill-rule:nonzero;"/></svg>