<?xml version="1.0" encoding="UTF-8" standalone="no"?><!DOCTYPE svg PUBLIC "-//W3C//DTD SVG 1.1//EN" "http://www.w3.org/Graphics/SVG/1.1/DTD/svg11.dtd"><svg width="100%" height="100%" viewBox="0 0 150 29" version="1.1" xmlns="http://www.w3.org/2000/svg" xmlns:xlink="http://www.w3.org/1999/xlink" xml:space="preserve" xmlns:serif="http://www.serif.com/" style="fill-rule:evenodd;clip-rule:evenodd;stroke-linejoin:round;stroke-miterlimit:2;"><g id="Rounder_counter"><path d="M14.184,8.109l-8.102,-0c-1.12,-0 -2.028,-0.908 -2.028,-2.027l0,-4.055c0,-1.119 -0.907,-2.027 -2.027,-2.027c-1.119,0 -2.027,0.908 -2.027,2.027l0,24.327c0,1.119 0.908,2.027 2.027,2.027l12.157,-0c3.362,-0 6.088,-2.726 6.088,-6.089l0,-8.095c0,-3.362 -2.726,-6.088 -6.088,-6.088l-0,-0Zm2.034,12.614c-0,1.99 -1.614,3.604 -3.604,3.604l-6.532,-0c-1.12,-0 -2.027,-0.908 -2.027,-2.028l-0,-8.109c-0,-1.119 0.907,-2.027 2.027,-2.027l6.532,0c1.99,0 3.604,1.614 3.604,3.604l-0,4.956Zm50.68,-20.723c-1.12,-0 -2.027,0.908 -2.027,2.027l-0,4.055c-0,1.119 -0.908,2.027 -2.027,2.027l-8.102,-0c-3.363,-0 -6.089,2.726 -6.089,6.088l0,8.095c0,3.363 2.726,6.089 6.089,6.089l12.156,0c1.12,0 2.027,-0.908 2.027,-2.027l0,-24.327c0,-1.119 -0.907,-2.027 -2.027,-2.027l0,0Zm-2.027,22.299c-0,1.12 -0.908,2.028 -2.027,2.028l-6.532,-0c-1.991,-0 -3.604,-1.614 -3.604,-3.604l-0,-4.956c-0,-1.99 1.613,-3.604 3.604,-3.604l6.532,0c1.119,0 2.027,0.908 2.027,2.028l-0,8.108l-0,0Zm-22.299,-14.19c-1.12,-0 -2.028,0.907 -2.028,2.027l0,12.163c0,1.12 -0.907,2.027 -2.027,2.027l-8.109,0c-1.119,0 -2.027,-0.907 -2.027,-2.027l0,-12.163c0,-1.12 -0.908,-2.027 -2.027,-2.027c-1.12,-0 -2.027,0.907 -2.027,2.027l-0,16.218c-0,1.119 0.907,2.027 2.027,2.027l16.218,-0c1.119,-0 2.027,-0.908 2.027,-2.027l-0,-16.218c-0,-1.119 -0.908,-2.027 -2.027,-2.027l-0,-0Zm44.584,4.054l60.817,0c1.135,0 2.027,-0.892 2.027,-2.027l0,-8.109c0,-1.095 -0.892,-2.027 -2.027,-2.027l-64.871,0c-1.135,0 -2.027,0.932 -2.027,2.027c-0,1.135 0.892,2.027 2.027,2.027l60.816,0c1.136,0 2.028,0.933 2.028,2.027c-0,1.136 -0.892,2.028 -2.028,2.028l-60.816,-0c-1.135,-0 -2.027,0.932 -2.027,2.027l-0,8.109c-0,1.135 0.892,2.027 2.027,2.027l60.816,0c1.136,0 2.028,0.933 2.028,2.028c-0,1.135 -0.892,2.027 -2.028,2.027l-60.816,-0c-1.135,-0 -2.027,0.932 -2.027,2.027c-0,1.135 0.892,2.027 2.027,2.027l64.871,0c1.135,0 2.027,-0.892 2.027,-2.027l-0,-8.109c-0,-1.095 -0.892,-2.027 -2.027,-2.027l-60.817,-0c-1.135,-0 -2.027,-0.892 -2.027,-2.027c0,-1.095 0.892,-2.028 2.027,-2.028l0,0Z" style="fill:#5b5b5b;fill-rule:nonzero;"/></g></svg>