<?xml version="1.0" encoding="UTF-8" standalone="no"?><!DOCTYPE svg PUBLIC "-//W3C//DTD SVG 1.1//EN" "http://www.w3.org/Graphics/SVG/1.1/DTD/svg11.dtd"><svg width="100%" height="100%" viewBox="0 0 226 51" version="1.1" xmlns="http://www.w3.org/2000/svg" xmlns:xlink="http://www.w3.org/1999/xlink" xml:space="preserve" xmlns:serif="http://www.serif.com/" style="fill-rule:evenodd;clip-rule:evenodd;stroke-linejoin:round;stroke-miterlimit:2;"><g><path d="M70.667,36.956l-4.519,-0l-6.8,-8.788l-2.723,0l-0,8.788l-3.724,-0l-0,-22.697l8.787,-0c4.46,-0 7.816,2.016 7.949,7.021c-0.001,4.268 -2.532,6.285 -5.991,6.756l7.021,8.905l-0,0.015Zm-8.95,-12.026c2.562,0 4.195,-1.089 4.195,-3.621c0,-2.532 -1.736,-3.4 -4.195,-3.326l-5.092,-0l-0,6.962l5.092,-0l0,-0.015Z" style="fill:#5b5b5b;fill-rule:nonzero;"/><path d="M93.29,17.938l-11.245,0l-0,5.8l10.348,-0l-0,3.724l-10.348,-0l-0,5.77l11.245,-0l0,3.724l-14.969,-0l-0,-22.727l14.969,0l0.001,3.724l-0.001,-0.015Z" style="fill:#5b5b5b;fill-rule:nonzero;"/><path d="M105.743,36.956l-3.665,-0l0,-22.697l8.788,-0c5.225,-0 7.86,3.782 7.86,7.462c0,3.68 -2.635,7.375 -7.816,7.375l-5.167,-0l0,7.86Zm9.274,-15.161c0,-1.884 -1.414,-3.871 -4.166,-3.812l-5.122,-0l0,7.727l5.122,0c2.782,0 4.166,-2.016 4.166,-3.915Z" style="fill:#5b5b5b;fill-rule:nonzero;"/><path d="M139.347,36.956l-14.042,-0l0,-22.697l3.68,-0l0,18.973l10.348,-0l-0,3.724l0.014,-0Z" style="fill:#5b5b5b;fill-rule:nonzero;"/><rect x="146.722" y="14.259" width="3.68" height="22.697" style="fill:#5b5b5b;fill-rule:nonzero;"/><path d="M159.41,21.177c0,-4.843 4.357,-7.272 8.714,-7.272c3.297,0 6.609,1.472 8.272,4.976l-3.327,1.575c-0.986,-2.017 -3.047,-2.856 -5.004,-2.856c-2.473,-0 -4.975,1.192 -4.975,3.591l0,8.685c0,2.473 2.531,3.65 5.034,3.65c2.502,0 5.092,-1.192 5.092,-3.65l0,-1.767l-6.373,0l-0,-3.562l10.068,0l-0,5.314c-0,4.975 -4.357,7.374 -8.787,7.374c-4.431,0 -8.714,-2.399 -8.714,-7.374l-0,-8.684Z" style="fill:#5b5b5b;fill-rule:nonzero;"/><path d="M200.02,17.938l-11.245,0l0,5.8l10.347,-0l0,3.724l-10.347,-0l0,5.77l11.245,-0l0,3.724l-14.969,-0l-0,-22.727l14.969,0l0,3.724l0,-0.015Z" style="fill:#5b5b5b;fill-rule:nonzero;"/><path d="M211.693,24.283l0,12.673l-3.724,-0l-0,-22.697l3.916,-0l7.889,13.394l2.341,4.519l0.22,-0.059l-0.544,-4.872l-0,-12.982l3.724,-0l-0,22.697l-4.328,-0l-7.727,-13.145l-2.12,-4.327l-0.221,0.059l0.574,4.739Z" style="fill:#5b5b5b;fill-rule:nonzero;"/><path d="M5.402,43.182l-0,-25.95c1,-0.177 2.104,-0.28 3.194,-0.28c4.563,0 7.124,1.502 7.124,5.167c-0,3.665 -2.414,4.975 -6.388,4.975c-1.134,-0 -2.547,-0.103 -3.504,-0.25c0.295,1.413 0.692,2.841 1.134,4.151c1.825,5.946 4.327,10.921 6.918,14.233c0.265,0.324 0.618,0.559 1.045,0.751c-3.459,-0.147 -6.697,-1.163 -9.523,-2.812l-0,0.015Zm10.436,-38.432c-6.08,-0 -11.555,2.635 -15.338,6.845c2.252,-0.324 5.019,-0.516 7.58,-0.516c9.126,0 14.617,3.018 14.617,10.687c-0,4.666 -1.987,7.757 -5.093,9.449c-1.075,0.53 -2.355,1.045 -3.621,1.443c2.532,6.727 9.185,9.671 11.761,10.848c6.388,-3.503 10.73,-10.303 10.73,-18.105c0.015,-11.407 -9.229,-20.651 -20.636,-20.651Z" style="fill:#5b5b5b;fill-rule:nonzero;"/></g></svg>